<svg width="196" height="31" viewBox="0 0 196 31" fill="none" xmlns="http://www.w3.org/2000/svg">
<mask id="path-1-outside-1_1_867" maskUnits="userSpaceOnUse" x="-1" y="-1" width="197" height="32" fill="black">
<rect fill="white" x="-1" y="-1" width="197" height="32"/>
<path d="M11.2048 30.1522C9.0991 30.1522 7.22177 29.7083 5.57276 28.8203C3.94912 27.907 2.66796 26.6639 1.7293 25.091C0.816 23.4928 0.359352 21.6662 0.359352 19.6112C0.359352 17.531 0.790631 15.7044 1.65319 14.1315C2.54112 12.5332 3.75885 11.2901 5.30638 10.4022C6.85391 9.48886 8.62977 9.03221 10.6339 9.03221C12.6128 9.03221 14.3125 9.47618 15.7332 10.3641C17.1539 11.2267 18.2321 12.4317 18.9678 13.9792C19.7289 15.5014 20.1094 17.2646 20.1094 19.2688C20.1094 19.7508 19.9445 20.1567 19.6147 20.4865C19.2849 20.7909 18.8663 20.9431 18.3589 20.9431H3.02314V17.8988H18.2448L16.6845 18.9643C16.6592 17.6959 16.4055 16.5669 15.9235 15.5775C15.4414 14.5627 14.7565 13.7636 13.8685 13.1801C12.9806 12.5966 11.9024 12.3049 10.6339 12.3049C9.18789 12.3049 7.94479 12.622 6.90465 13.2562C5.88988 13.8904 5.11611 14.7657 4.58335 15.8819C4.0506 16.9728 3.78422 18.2159 3.78422 19.6112C3.78422 21.0066 4.10133 22.2497 4.73557 23.3405C5.3698 24.4314 6.24505 25.294 7.3613 25.9282C8.47755 26.5624 9.7587 26.8796 11.2048 26.8796C11.9912 26.8796 12.7903 26.74 13.6022 26.461C14.4394 26.1565 15.1116 25.8141 15.619 25.4335C15.9996 25.1544 16.4055 25.0149 16.8368 25.0149C17.2934 24.9895 17.6866 25.1164 18.0164 25.3955C18.4477 25.776 18.676 26.1946 18.7014 26.6512C18.7268 27.1079 18.5238 27.5011 18.0925 27.8309C17.23 28.5159 16.1518 29.074 14.8579 29.5053C13.5895 29.9366 12.3717 30.1522 11.2048 30.1522ZM32.4984 29.9619C31.7119 29.9619 31.1031 29.5434 30.6718 28.7062L22.6043 11.696C22.4014 11.2647 22.376 10.8461 22.5282 10.4402C22.7058 10.0089 23.0356 9.67913 23.5176 9.45081C23.9489 9.22248 24.3802 9.18443 24.8115 9.33664C25.2681 9.48886 25.6106 9.78061 25.8389 10.2119L33.3736 26.461H31.547L39.0056 10.2119C39.234 9.78061 39.5764 9.48886 40.0331 9.33664C40.5151 9.18443 40.9971 9.22248 41.4791 9.45081C41.9358 9.65376 42.2402 9.97088 42.3924 10.4022C42.5447 10.8334 42.5193 11.2647 42.3163 11.696L34.2489 28.7062C33.8683 29.5434 33.2848 29.9619 32.4984 29.9619ZM57.9128 30.1522C55.934 30.1522 54.1582 29.6956 52.5853 28.7823C51.0124 27.8436 49.7693 26.5751 48.856 24.9769C47.9427 23.3786 47.4733 21.5774 47.448 19.5732V2.22054C47.448 1.63704 47.6256 1.16771 47.9807 0.812537C48.3613 0.457366 48.8306 0.27978 49.3887 0.27978C49.9722 0.27978 50.4416 0.457366 50.7967 0.812537C51.1519 1.16771 51.3295 1.63704 51.3295 2.22054V12.4951C52.2174 11.4296 53.2829 10.5924 54.526 9.98356C55.7945 9.34933 57.1771 9.03221 58.6739 9.03221C60.5259 9.03221 62.1876 9.50155 63.659 10.4402C65.1304 11.3535 66.2847 12.6093 67.1219 14.2076C67.9845 15.7805 68.4158 17.569 68.4158 19.5732C68.4158 21.5774 67.9464 23.3786 67.0078 24.9769C66.0945 26.5751 64.8514 27.8436 63.2785 28.7823C61.7056 29.6956 59.917 30.1522 57.9128 30.1522ZM57.9128 26.7274C59.2067 26.7274 60.361 26.4229 61.3758 25.8141C62.3905 25.1798 63.1897 24.3173 63.7732 23.2264C64.382 22.1355 64.6865 20.9178 64.6865 19.5732C64.6865 18.2032 64.382 16.9855 63.7732 15.92C63.1897 14.8545 62.3905 14.0173 61.3758 13.4084C60.361 12.7742 59.2067 12.4571 57.9128 12.4571C56.6444 12.4571 55.4901 12.7742 54.4499 13.4084C53.4352 14.0173 52.636 14.8545 52.0525 15.92C51.469 16.9855 51.1773 18.2032 51.1773 19.5732C51.1773 20.9178 51.469 22.1355 52.0525 23.2264C52.636 24.3173 53.4352 25.1798 54.4499 25.8141C55.4901 26.4229 56.6444 26.7274 57.9128 26.7274ZM84.0988 30.1903C82.3483 30.1903 80.7754 29.8224 79.3801 29.0867C78.0101 28.3256 76.9193 27.2221 76.1074 25.776C75.321 24.3299 74.9278 22.5541 74.9278 20.4484V11.0871C74.9278 10.529 75.1053 10.0724 75.4605 9.71719C75.8411 9.33664 76.3104 9.14637 76.8685 9.14637C77.4266 9.14637 77.8833 9.33664 78.2385 9.71719C78.619 10.0724 78.8093 10.529 78.8093 11.0871V20.4484C78.8093 21.8691 79.0757 23.0488 79.6084 23.9875C80.1412 24.9008 80.8642 25.5857 81.7775 26.0424C82.6908 26.4737 83.7183 26.6893 84.8599 26.6893C85.9508 26.6893 86.9148 26.4737 87.752 26.0424C88.6145 25.6111 89.2995 25.0276 89.8069 24.2919C90.3143 23.5562 90.568 22.7317 90.568 21.8184H92.9654C92.9654 23.3913 92.5722 24.812 91.7857 26.0804C91.0246 27.3489 89.9718 28.351 88.6272 29.0867C87.308 29.8224 85.7985 30.1903 84.0988 30.1903ZM92.5087 30C91.9506 30 91.4813 29.8224 91.1007 29.4672C90.7456 29.0867 90.568 28.6174 90.568 28.0592V11.0871C90.568 10.5036 90.7456 10.0343 91.1007 9.67913C91.4813 9.32396 91.9506 9.14637 92.5087 9.14637C93.0922 9.14637 93.5616 9.32396 93.9167 9.67913C94.2719 10.0343 94.4495 10.5036 94.4495 11.0871V28.0592C94.4495 28.6174 94.2719 29.0867 93.9167 29.4672C93.5616 29.8224 93.0922 30 92.5087 30ZM104.292 16.9855C104.292 15.4633 104.66 14.1061 105.395 12.9137C106.156 11.696 107.171 10.732 108.44 10.0216C109.708 9.31128 111.103 8.9561 112.626 8.9561C114.148 8.9561 115.277 9.2098 116.012 9.71719C116.774 10.1992 117.065 10.7827 116.888 11.4677C116.812 11.8228 116.659 12.1019 116.431 12.3049C116.228 12.4824 115.987 12.5966 115.708 12.6473C115.429 12.6981 115.125 12.6854 114.795 12.6093C113.171 12.2795 111.712 12.2541 110.419 12.5332C109.125 12.8122 108.097 13.3323 107.336 14.0934C106.6 14.8545 106.233 15.8185 106.233 16.9855H104.292ZM104.33 30C103.721 30 103.252 29.8478 102.922 29.5434C102.592 29.2135 102.427 28.7315 102.427 28.0973V11.0871C102.427 10.4783 102.592 10.0089 102.922 9.67913C103.252 9.34933 103.721 9.18443 104.33 9.18443C104.964 9.18443 105.433 9.34933 105.738 9.67913C106.068 9.98356 106.233 10.4529 106.233 11.0871V28.0973C106.233 28.7062 106.068 29.1755 105.738 29.5053C105.433 29.8351 104.964 30 104.33 30ZM129.228 30.1522C127.376 30.1522 125.715 29.6956 124.243 28.7823C122.772 27.8436 121.605 26.5878 120.742 25.0149C119.905 23.4166 119.486 21.6154 119.486 19.6112C119.486 17.6071 119.943 15.8058 120.856 14.2076C121.795 12.6093 123.051 11.3535 124.624 10.4402C126.222 9.50155 128.01 9.03221 129.989 9.03221C131.968 9.03221 133.744 9.50155 135.317 10.4402C136.89 11.3535 138.133 12.6093 139.046 14.2076C139.985 15.8058 140.454 17.6071 140.454 19.6112H138.97C138.97 21.6154 138.539 23.4166 137.676 25.0149C136.839 26.5878 135.685 27.8436 134.213 28.7823C132.742 29.6956 131.08 30.1522 129.228 30.1522ZM129.989 26.7274C131.283 26.7274 132.437 26.4229 133.452 25.8141C134.467 25.1798 135.266 24.3299 135.85 23.2644C136.433 22.1735 136.725 20.9558 136.725 19.6112C136.725 18.2413 136.433 17.0236 135.85 15.9581C135.266 14.8672 134.467 14.0173 133.452 13.4084C132.437 12.7742 131.283 12.4571 129.989 12.4571C128.721 12.4571 127.567 12.7742 126.526 13.4084C125.512 14.0173 124.7 14.8672 124.091 15.9581C123.507 17.0236 123.216 18.2413 123.216 19.6112C123.216 20.9558 123.507 22.1735 124.091 23.2644C124.7 24.3299 125.512 25.1798 126.526 25.8141C127.567 26.4229 128.721 26.7274 129.989 26.7274ZM138.513 30.0381C137.955 30.0381 137.486 29.8605 137.105 29.5053C136.75 29.1248 136.573 28.6554 136.573 28.0973V22.275L137.296 18.2413L140.454 19.6112V28.0973C140.454 28.6554 140.264 29.1248 139.883 29.5053C139.528 29.8605 139.072 30.0381 138.513 30.0381ZM156.81 30.1522C154.831 30.1522 153.043 29.6956 151.444 28.7823C149.871 27.8436 148.616 26.5751 147.677 24.9769C146.764 23.3786 146.307 21.5774 146.307 19.5732C146.307 17.569 146.726 15.7805 147.563 14.2076C148.425 12.6093 149.592 11.3535 151.064 10.4402C152.535 9.50155 154.197 9.03221 156.049 9.03221C157.546 9.03221 158.928 9.34933 160.197 9.98356C161.465 10.5924 162.531 11.4296 163.393 12.4951V2.22054C163.393 1.63704 163.571 1.16771 163.926 0.812537C164.307 0.457366 164.776 0.27978 165.334 0.27978C165.918 0.27978 166.387 0.457366 166.742 0.812537C167.097 1.16771 167.275 1.63704 167.275 2.22054V19.5732C167.275 21.5774 166.806 23.3786 165.867 24.9769C164.954 26.5751 163.71 27.8436 162.138 28.7823C160.565 29.6956 158.789 30.1522 156.81 30.1522ZM156.81 26.7274C158.104 26.7274 159.258 26.4229 160.273 25.8141C161.288 25.1798 162.087 24.3173 162.67 23.2264C163.254 22.1355 163.546 20.9178 163.546 19.5732C163.546 18.2032 163.254 16.9855 162.67 15.92C162.087 14.8545 161.288 14.0173 160.273 13.4084C159.258 12.7742 158.104 12.4571 156.81 12.4571C155.542 12.4571 154.387 12.7742 153.347 13.4084C152.332 14.0173 151.52 14.8545 150.912 15.92C150.328 16.9855 150.036 18.2032 150.036 19.5732C150.036 20.9178 150.328 22.1355 150.912 23.2264C151.52 24.3173 152.332 25.1798 153.347 25.8141C154.387 26.4229 155.542 26.7274 156.81 26.7274ZM183.947 30.1522C182.095 30.1522 180.434 29.6956 178.962 28.7823C177.491 27.8436 176.324 26.5878 175.461 25.0149C174.624 23.4166 174.205 21.6154 174.205 19.6112C174.205 17.6071 174.662 15.8058 175.575 14.2076C176.514 12.6093 177.77 11.3535 179.343 10.4402C180.941 9.50155 182.73 9.03221 184.708 9.03221C186.687 9.03221 188.463 9.50155 190.036 10.4402C191.609 11.3535 192.852 12.6093 193.765 14.2076C194.704 15.8058 195.173 17.6071 195.173 19.6112H193.689C193.689 21.6154 193.258 23.4166 192.395 25.0149C191.558 26.5878 190.404 27.8436 188.932 28.7823C187.461 29.6956 185.799 30.1522 183.947 30.1522ZM184.708 26.7274C186.002 26.7274 187.157 26.4229 188.171 25.8141C189.186 25.1798 189.985 24.3299 190.569 23.2644C191.152 22.1735 191.444 20.9558 191.444 19.6112C191.444 18.2413 191.152 17.0236 190.569 15.9581C189.985 14.8672 189.186 14.0173 188.171 13.4084C187.157 12.7742 186.002 12.4571 184.708 12.4571C183.44 12.4571 182.286 12.7742 181.245 13.4084C180.231 14.0173 179.419 14.8672 178.81 15.9581C178.226 17.0236 177.935 18.2413 177.935 19.6112C177.935 20.9558 178.226 22.1735 178.81 23.2644C179.419 24.3299 180.231 25.1798 181.245 25.8141C182.286 26.4229 183.44 26.7274 184.708 26.7274ZM193.232 30.0381C192.674 30.0381 192.205 29.8605 191.824 29.5053C191.469 29.1248 191.292 28.6554 191.292 28.0973V22.275L192.015 18.2413L195.173 19.6112V28.0973C195.173 28.6554 194.983 29.1248 194.602 29.5053C194.247 29.8605 193.791 30.0381 193.232 30.0381Z"/>
</mask>
<path d="M11.2048 30.1522C9.0991 30.1522 7.22177 29.7083 5.57276 28.8203C3.94912 27.907 2.66796 26.6639 1.7293 25.091C0.816 23.4928 0.359352 21.6662 0.359352 19.6112C0.359352 17.531 0.790631 15.7044 1.65319 14.1315C2.54112 12.5332 3.75885 11.2901 5.30638 10.4022C6.85391 9.48886 8.62977 9.03221 10.6339 9.03221C12.6128 9.03221 14.3125 9.47618 15.7332 10.3641C17.1539 11.2267 18.2321 12.4317 18.9678 13.9792C19.7289 15.5014 20.1094 17.2646 20.1094 19.2688C20.1094 19.7508 19.9445 20.1567 19.6147 20.4865C19.2849 20.7909 18.8663 20.9431 18.3589 20.9431H3.02314V17.8988H18.2448L16.6845 18.9643C16.6592 17.6959 16.4055 16.5669 15.9235 15.5775C15.4414 14.5627 14.7565 13.7636 13.8685 13.1801C12.9806 12.5966 11.9024 12.3049 10.6339 12.3049C9.18789 12.3049 7.94479 12.622 6.90465 13.2562C5.88988 13.8904 5.11611 14.7657 4.58335 15.8819C4.0506 16.9728 3.78422 18.2159 3.78422 19.6112C3.78422 21.0066 4.10133 22.2497 4.73557 23.3405C5.3698 24.4314 6.24505 25.294 7.3613 25.9282C8.47755 26.5624 9.7587 26.8796 11.2048 26.8796C11.9912 26.8796 12.7903 26.74 13.6022 26.461C14.4394 26.1565 15.1116 25.8141 15.619 25.4335C15.9996 25.1544 16.4055 25.0149 16.8368 25.0149C17.2934 24.9895 17.6866 25.1164 18.0164 25.3955C18.4477 25.776 18.676 26.1946 18.7014 26.6512C18.7268 27.1079 18.5238 27.5011 18.0925 27.8309C17.23 28.5159 16.1518 29.074 14.8579 29.5053C13.5895 29.9366 12.3717 30.1522 11.2048 30.1522ZM32.4984 29.9619C31.7119 29.9619 31.1031 29.5434 30.6718 28.7062L22.6043 11.696C22.4014 11.2647 22.376 10.8461 22.5282 10.4402C22.7058 10.0089 23.0356 9.67913 23.5176 9.45081C23.9489 9.22248 24.3802 9.18443 24.8115 9.33664C25.2681 9.48886 25.6106 9.78061 25.8389 10.2119L33.3736 26.461H31.547L39.0056 10.2119C39.234 9.78061 39.5764 9.48886 40.0331 9.33664C40.5151 9.18443 40.9971 9.22248 41.4791 9.45081C41.9358 9.65376 42.2402 9.97088 42.3924 10.4022C42.5447 10.8334 42.5193 11.2647 42.3163 11.696L34.2489 28.7062C33.8683 29.5434 33.2848 29.9619 32.4984 29.9619ZM57.9128 30.1522C55.934 30.1522 54.1582 29.6956 52.5853 28.7823C51.0124 27.8436 49.7693 26.5751 48.856 24.9769C47.9427 23.3786 47.4733 21.5774 47.448 19.5732V2.22054C47.448 1.63704 47.6256 1.16771 47.9807 0.812537C48.3613 0.457366 48.8306 0.27978 49.3887 0.27978C49.9722 0.27978 50.4416 0.457366 50.7967 0.812537C51.1519 1.16771 51.3295 1.63704 51.3295 2.22054V12.4951C52.2174 11.4296 53.2829 10.5924 54.526 9.98356C55.7945 9.34933 57.1771 9.03221 58.6739 9.03221C60.5259 9.03221 62.1876 9.50155 63.659 10.4402C65.1304 11.3535 66.2847 12.6093 67.1219 14.2076C67.9845 15.7805 68.4158 17.569 68.4158 19.5732C68.4158 21.5774 67.9464 23.3786 67.0078 24.9769C66.0945 26.5751 64.8514 27.8436 63.2785 28.7823C61.7056 29.6956 59.917 30.1522 57.9128 30.1522ZM57.9128 26.7274C59.2067 26.7274 60.361 26.4229 61.3758 25.8141C62.3905 25.1798 63.1897 24.3173 63.7732 23.2264C64.382 22.1355 64.6865 20.9178 64.6865 19.5732C64.6865 18.2032 64.382 16.9855 63.7732 15.92C63.1897 14.8545 62.3905 14.0173 61.3758 13.4084C60.361 12.7742 59.2067 12.4571 57.9128 12.4571C56.6444 12.4571 55.4901 12.7742 54.4499 13.4084C53.4352 14.0173 52.636 14.8545 52.0525 15.92C51.469 16.9855 51.1773 18.2032 51.1773 19.5732C51.1773 20.9178 51.469 22.1355 52.0525 23.2264C52.636 24.3173 53.4352 25.1798 54.4499 25.8141C55.4901 26.4229 56.6444 26.7274 57.9128 26.7274ZM84.0988 30.1903C82.3483 30.1903 80.7754 29.8224 79.3801 29.0867C78.0101 28.3256 76.9193 27.2221 76.1074 25.776C75.321 24.3299 74.9278 22.5541 74.9278 20.4484V11.0871C74.9278 10.529 75.1053 10.0724 75.4605 9.71719C75.8411 9.33664 76.3104 9.14637 76.8685 9.14637C77.4266 9.14637 77.8833 9.33664 78.2385 9.71719C78.619 10.0724 78.8093 10.529 78.8093 11.0871V20.4484C78.8093 21.8691 79.0757 23.0488 79.6084 23.9875C80.1412 24.9008 80.8642 25.5857 81.7775 26.0424C82.6908 26.4737 83.7183 26.6893 84.8599 26.6893C85.9508 26.6893 86.9148 26.4737 87.752 26.0424C88.6145 25.6111 89.2995 25.0276 89.8069 24.2919C90.3143 23.5562 90.568 22.7317 90.568 21.8184H92.9654C92.9654 23.3913 92.5722 24.812 91.7857 26.0804C91.0246 27.3489 89.9718 28.351 88.6272 29.0867C87.308 29.8224 85.7985 30.1903 84.0988 30.1903ZM92.5087 30C91.9506 30 91.4813 29.8224 91.1007 29.4672C90.7456 29.0867 90.568 28.6174 90.568 28.0592V11.0871C90.568 10.5036 90.7456 10.0343 91.1007 9.67913C91.4813 9.32396 91.9506 9.14637 92.5087 9.14637C93.0922 9.14637 93.5616 9.32396 93.9167 9.67913C94.2719 10.0343 94.4495 10.5036 94.4495 11.0871V28.0592C94.4495 28.6174 94.2719 29.0867 93.9167 29.4672C93.5616 29.8224 93.0922 30 92.5087 30ZM104.292 16.9855C104.292 15.4633 104.66 14.1061 105.395 12.9137C106.156 11.696 107.171 10.732 108.44 10.0216C109.708 9.31128 111.103 8.9561 112.626 8.9561C114.148 8.9561 115.277 9.2098 116.012 9.71719C116.774 10.1992 117.065 10.7827 116.888 11.4677C116.812 11.8228 116.659 12.1019 116.431 12.3049C116.228 12.4824 115.987 12.5966 115.708 12.6473C115.429 12.6981 115.125 12.6854 114.795 12.6093C113.171 12.2795 111.712 12.2541 110.419 12.5332C109.125 12.8122 108.097 13.3323 107.336 14.0934C106.6 14.8545 106.233 15.8185 106.233 16.9855H104.292ZM104.33 30C103.721 30 103.252 29.8478 102.922 29.5434C102.592 29.2135 102.427 28.7315 102.427 28.0973V11.0871C102.427 10.4783 102.592 10.0089 102.922 9.67913C103.252 9.34933 103.721 9.18443 104.33 9.18443C104.964 9.18443 105.433 9.34933 105.738 9.67913C106.068 9.98356 106.233 10.4529 106.233 11.0871V28.0973C106.233 28.7062 106.068 29.1755 105.738 29.5053C105.433 29.8351 104.964 30 104.33 30ZM129.228 30.1522C127.376 30.1522 125.715 29.6956 124.243 28.7823C122.772 27.8436 121.605 26.5878 120.742 25.0149C119.905 23.4166 119.486 21.6154 119.486 19.6112C119.486 17.6071 119.943 15.8058 120.856 14.2076C121.795 12.6093 123.051 11.3535 124.624 10.4402C126.222 9.50155 128.01 9.03221 129.989 9.03221C131.968 9.03221 133.744 9.50155 135.317 10.4402C136.89 11.3535 138.133 12.6093 139.046 14.2076C139.985 15.8058 140.454 17.6071 140.454 19.6112H138.97C138.97 21.6154 138.539 23.4166 137.676 25.0149C136.839 26.5878 135.685 27.8436 134.213 28.7823C132.742 29.6956 131.08 30.1522 129.228 30.1522ZM129.989 26.7274C131.283 26.7274 132.437 26.4229 133.452 25.8141C134.467 25.1798 135.266 24.3299 135.85 23.2644C136.433 22.1735 136.725 20.9558 136.725 19.6112C136.725 18.2413 136.433 17.0236 135.85 15.9581C135.266 14.8672 134.467 14.0173 133.452 13.4084C132.437 12.7742 131.283 12.4571 129.989 12.4571C128.721 12.4571 127.567 12.7742 126.526 13.4084C125.512 14.0173 124.7 14.8672 124.091 15.9581C123.507 17.0236 123.216 18.2413 123.216 19.6112C123.216 20.9558 123.507 22.1735 124.091 23.2644C124.7 24.3299 125.512 25.1798 126.526 25.8141C127.567 26.4229 128.721 26.7274 129.989 26.7274ZM138.513 30.0381C137.955 30.0381 137.486 29.8605 137.105 29.5053C136.75 29.1248 136.573 28.6554 136.573 28.0973V22.275L137.296 18.2413L140.454 19.6112V28.0973C140.454 28.6554 140.264 29.1248 139.883 29.5053C139.528 29.8605 139.072 30.0381 138.513 30.0381ZM156.81 30.1522C154.831 30.1522 153.043 29.6956 151.444 28.7823C149.871 27.8436 148.616 26.5751 147.677 24.9769C146.764 23.3786 146.307 21.5774 146.307 19.5732C146.307 17.569 146.726 15.7805 147.563 14.2076C148.425 12.6093 149.592 11.3535 151.064 10.4402C152.535 9.50155 154.197 9.03221 156.049 9.03221C157.546 9.03221 158.928 9.34933 160.197 9.98356C161.465 10.5924 162.531 11.4296 163.393 12.4951V2.22054C163.393 1.63704 163.571 1.16771 163.926 0.812537C164.307 0.457366 164.776 0.27978 165.334 0.27978C165.918 0.27978 166.387 0.457366 166.742 0.812537C167.097 1.16771 167.275 1.63704 167.275 2.22054V19.5732C167.275 21.5774 166.806 23.3786 165.867 24.9769C164.954 26.5751 163.71 27.8436 162.138 28.7823C160.565 29.6956 158.789 30.1522 156.81 30.1522ZM156.81 26.7274C158.104 26.7274 159.258 26.4229 160.273 25.8141C161.288 25.1798 162.087 24.3173 162.67 23.2264C163.254 22.1355 163.546 20.9178 163.546 19.5732C163.546 18.2032 163.254 16.9855 162.67 15.92C162.087 14.8545 161.288 14.0173 160.273 13.4084C159.258 12.7742 158.104 12.4571 156.81 12.4571C155.542 12.4571 154.387 12.7742 153.347 13.4084C152.332 14.0173 151.52 14.8545 150.912 15.92C150.328 16.9855 150.036 18.2032 150.036 19.5732C150.036 20.9178 150.328 22.1355 150.912 23.2264C151.52 24.3173 152.332 25.1798 153.347 25.8141C154.387 26.4229 155.542 26.7274 156.81 26.7274ZM183.947 30.1522C182.095 30.1522 180.434 29.6956 178.962 28.7823C177.491 27.8436 176.324 26.5878 175.461 25.0149C174.624 23.4166 174.205 21.6154 174.205 19.6112C174.205 17.6071 174.662 15.8058 175.575 14.2076C176.514 12.6093 177.77 11.3535 179.343 10.4402C180.941 9.50155 182.73 9.03221 184.708 9.03221C186.687 9.03221 188.463 9.50155 190.036 10.4402C191.609 11.3535 192.852 12.6093 193.765 14.2076C194.704 15.8058 195.173 17.6071 195.173 19.6112H193.689C193.689 21.6154 193.258 23.4166 192.395 25.0149C191.558 26.5878 190.404 27.8436 188.932 28.7823C187.461 29.6956 185.799 30.1522 183.947 30.1522ZM184.708 26.7274C186.002 26.7274 187.157 26.4229 188.171 25.8141C189.186 25.1798 189.985 24.3299 190.569 23.2644C191.152 22.1735 191.444 20.9558 191.444 19.6112C191.444 18.2413 191.152 17.0236 190.569 15.9581C189.985 14.8672 189.186 14.0173 188.171 13.4084C187.157 12.7742 186.002 12.4571 184.708 12.4571C183.44 12.4571 182.286 12.7742 181.245 13.4084C180.231 14.0173 179.419 14.8672 178.81 15.9581C178.226 17.0236 177.935 18.2413 177.935 19.6112C177.935 20.9558 178.226 22.1735 178.81 23.2644C179.419 24.3299 180.231 25.1798 181.245 25.8141C182.286 26.4229 183.44 26.7274 184.708 26.7274ZM193.232 30.0381C192.674 30.0381 192.205 29.8605 191.824 29.5053C191.469 29.1248 191.292 28.6554 191.292 28.0973V22.275L192.015 18.2413L195.173 19.6112V28.0973C195.173 28.6554 194.983 29.1248 194.602 29.5053C194.247 29.8605 193.791 30.0381 193.232 30.0381Z" fill="#1560AC"/>
<path d="M5.57276 28.8203L5.2812 29.3386L5.29086 29.3438L5.57276 28.8203ZM1.7293 25.091L1.21295 25.3861L1.21871 25.3957L1.7293 25.091ZM1.65319 14.1315L1.13341 13.8427L1.13184 13.8456L1.65319 14.1315ZM5.30638 10.4022L5.60231 10.9179L5.60858 10.9142L5.30638 10.4022ZM15.7332 10.3641L15.418 10.8684L15.4246 10.8724L15.7332 10.3641ZM18.9678 13.9792L18.4307 14.2346L18.436 14.2452L18.9678 13.9792ZM19.6147 20.4865L20.018 20.9234L20.0267 20.9153L20.0351 20.9069L19.6147 20.4865ZM3.02314 20.9431H2.42854V21.5377H3.02314V20.9431ZM3.02314 17.8988V17.3042H2.42854V17.8988H3.02314ZM18.2448 17.8988L18.5801 18.3898L20.1697 17.3042H18.2448V17.8988ZM16.6845 18.9643L16.0901 18.9762L16.1121 20.0753L17.0199 19.4553L16.6845 18.9643ZM15.9235 15.5775L15.3864 15.8326L15.3889 15.8379L15.9235 15.5775ZM6.90465 13.2562L6.59508 12.7485L6.58952 12.752L6.90465 13.2562ZM4.58335 15.8819L5.11766 16.1429L5.11996 16.1381L4.58335 15.8819ZM4.73557 23.3405L4.22154 23.6394L4.73557 23.3405ZM7.3613 25.9282L7.65503 25.4112L7.3613 25.9282ZM13.6022 26.461L13.7955 27.0234L13.8054 27.0198L13.6022 26.461ZM15.619 25.4335L15.2674 24.954L15.2623 24.9578L15.619 25.4335ZM16.8368 25.0149V25.6095H16.8533L16.8697 25.6086L16.8368 25.0149ZM18.0164 25.3955L18.4099 24.9495L18.4005 24.9416L18.0164 25.3955ZM18.7014 26.6512L19.2951 26.6183L18.7014 26.6512ZM18.0925 27.8309L17.7313 27.3585L17.7228 27.3653L18.0925 27.8309ZM14.8579 29.5053L14.6699 28.9412L14.6665 28.9424L14.8579 29.5053ZM11.2048 29.5576C9.18509 29.5576 7.40672 29.1325 5.85466 28.2968L5.29086 29.3438C7.03681 30.284 9.01311 30.7468 11.2048 30.7468V29.5576ZM5.86426 28.3021C4.32941 27.4387 3.12446 26.2686 2.23988 24.7863L1.21871 25.3957C2.21147 27.0593 3.56882 28.3753 5.28125 29.3386L5.86426 28.3021ZM2.24555 24.796C1.38937 23.2977 0.953946 21.575 0.953946 19.6112H-0.235243C-0.235243 21.7573 0.242633 23.6878 1.21305 25.386L2.24555 24.796ZM0.953946 19.6112C0.953946 17.6148 1.36721 15.8895 2.17454 14.4174L1.13184 13.8456C0.214052 15.5192 -0.235243 17.4471 -0.235243 19.6112H0.953946ZM2.17296 14.4202C3.00969 12.9141 4.15106 11.7506 5.60229 10.9179L5.01047 9.88643C3.36663 10.8296 2.07255 12.1523 1.13342 13.8427L2.17296 14.4202ZM5.60858 10.9142C7.05432 10.061 8.7235 9.62681 10.6339 9.62681V8.43762C8.53604 8.43762 6.6535 8.91672 5.00417 9.89009L5.60858 10.9142ZM10.6339 9.62681C12.5218 9.62681 14.1078 10.0494 15.4181 10.8683L16.0483 9.85989C14.5172 8.90292 12.7037 8.43762 10.6339 8.43762V9.62681ZM15.4246 10.8724C16.7429 11.6727 17.7433 12.7884 18.4308 14.2345L19.5048 13.7239C18.7209 12.075 17.5649 10.7806 16.0418 9.85585L15.4246 10.8724ZM18.436 14.2452C19.149 15.6713 19.5148 17.3406 19.5148 19.2688H20.704C20.704 17.1886 20.3087 15.3315 19.4996 13.7133L18.436 14.2452ZM19.5148 19.2688C19.5148 19.599 19.4085 19.8519 19.1943 20.066L20.0351 20.9069C20.4806 20.4615 20.704 19.9026 20.704 19.2688H19.5148ZM19.2114 20.0496C19.006 20.2392 18.7378 20.3485 18.3589 20.3485V21.5377C18.9948 21.5377 19.5639 21.3426 20.018 20.9234L19.2114 20.0496ZM18.3589 20.3485H3.02314V21.5377H18.3589V20.3485ZM3.61773 20.9431V17.8988H2.42854V20.9431H3.61773ZM3.02314 18.4934H18.2448V17.3042H3.02314V18.4934ZM17.9094 17.4078L16.3492 18.4733L17.0199 19.4553L18.5801 18.3898L17.9094 17.4078ZM17.279 18.9524C17.2522 17.6109 16.9831 16.395 16.458 15.3171L15.3889 15.8379C15.8278 16.7388 16.0662 17.7808 16.0901 18.9762L17.279 18.9524ZM16.4605 15.3224C15.9346 14.2152 15.1793 13.33 14.1951 12.6832L13.542 13.677C14.3336 14.1972 14.9483 14.9103 15.3864 15.8326L16.4605 15.3224ZM14.1951 12.6832C13.1927 12.0245 11.9956 11.7103 10.6339 11.7103V12.8995C11.8092 12.8995 12.7685 13.1687 13.542 13.677L14.1951 12.6832ZM10.6339 11.7103C9.0993 11.7103 7.74464 12.0476 6.5951 12.7486L7.2142 13.7639C8.14495 13.1963 9.27649 12.8995 10.6339 12.8995V11.7103ZM6.58952 12.752C5.47548 13.4483 4.6265 14.4111 4.04674 15.6258L5.11996 16.1381C5.60572 15.1203 6.30427 14.3326 7.21978 13.7604L6.58952 12.752ZM4.04907 15.621C3.47109 16.8045 3.18962 18.139 3.18962 19.6112H4.37881C4.37881 18.2928 4.6301 17.1412 5.11764 16.1429L4.04907 15.621ZM3.18962 19.6112C3.18962 21.1001 3.52909 22.4484 4.22154 23.6394L5.2496 23.0417C4.67358 22.0509 4.37881 20.913 4.37881 19.6112H3.18962ZM4.22154 23.6394C4.90958 24.8228 5.86156 25.76 7.06756 26.4452L7.65503 25.4112C6.62854 24.828 5.83002 24.04 5.2496 23.0417L4.22154 23.6394ZM7.06756 26.4452C8.28421 27.1365 9.66898 27.4742 11.2048 27.4742V26.285C9.84843 26.285 8.67089 25.9884 7.65503 25.4112L7.06756 26.4452ZM11.2048 27.4742C12.0627 27.4742 12.9271 27.3218 13.7955 27.0233L13.4089 25.8987C12.6536 26.1583 11.9197 26.285 11.2048 26.285V27.4742ZM13.8054 27.0198C14.6772 26.7028 15.4069 26.3358 15.9758 25.9092L15.2623 24.9578C14.8164 25.2923 14.2015 25.6103 13.399 25.9022L13.8054 27.0198ZM15.9707 25.913C16.2593 25.7013 16.544 25.6095 16.8368 25.6095V24.4203C16.267 24.4203 15.7398 24.6076 15.2674 24.954L15.9707 25.913ZM16.8697 25.6086C17.1844 25.5911 17.4259 25.6747 17.6324 25.8494L18.4005 24.9416C17.9474 24.5581 17.4024 24.388 16.8038 24.4212L16.8697 25.6086ZM17.623 25.8413C17.9675 26.1452 18.0933 26.425 18.1077 26.6842L19.2951 26.6183C19.2587 25.9642 18.928 25.4068 18.4098 24.9496L17.623 25.8413ZM18.1077 26.6842C18.12 26.9056 18.0399 27.1227 17.7314 27.3586L18.4537 28.3032C19.0078 27.8796 19.3335 27.3102 19.2951 26.6183L18.1077 26.6842ZM17.7228 27.3653C16.9258 27.9982 15.913 28.5269 14.6699 28.9412L15.046 30.0694C16.3906 29.6212 17.5342 29.0336 18.4623 28.2966L17.7228 27.3653ZM14.6665 28.9424C13.4507 29.3557 12.2978 29.5576 11.2048 29.5576V30.7468C12.4457 30.7468 13.7282 30.5174 15.0494 30.0682L14.6665 28.9424ZM30.6718 28.7062L30.1346 28.961L30.1387 28.9698L30.1432 28.9785L30.6718 28.7062ZM22.6043 11.696L22.0663 11.9492L22.0671 11.9508L22.6043 11.696ZM22.5282 10.4402L21.9784 10.2138L21.9748 10.2226L21.9715 10.2314L22.5282 10.4402ZM23.5176 9.45081L23.7722 9.98817L23.7841 9.9825L23.7958 9.9763L23.5176 9.45081ZM24.8115 9.33665L24.6135 9.89743L24.6234 9.90073L24.8115 9.33665ZM25.8389 10.2119L26.3783 9.96176L26.3718 9.94754L26.3644 9.93368L25.8389 10.2119ZM33.3736 26.461V27.0556H34.3047L33.913 26.2108L33.3736 26.461ZM31.547 26.461L31.0066 26.2129L30.6199 27.0556H31.547V26.461ZM39.0056 10.2119L38.4801 9.93368L38.4723 9.94855L38.4652 9.96384L39.0056 10.2119ZM40.0331 9.33665L39.854 8.76958L39.8451 8.77256L40.0331 9.33665ZM41.4791 9.45081L41.2246 9.98817L41.2311 9.99124L41.2377 9.99415L41.4791 9.45081ZM42.3924 10.4022L42.9531 10.2043L42.3924 10.4022ZM42.3163 11.696L42.8536 11.9508L42.8543 11.9492L42.3163 11.696ZM34.2489 28.7062L33.7116 28.4513L33.7076 28.4601L34.2489 28.7062ZM32.4984 29.3674C31.9831 29.3674 31.554 29.1203 31.2004 28.4339L30.1432 28.9785C30.6521 29.9664 31.4408 30.5565 32.4984 30.5565V29.3674ZM31.209 28.4514L23.1416 11.4412L22.0671 11.9508L30.1346 28.961L31.209 28.4514ZM23.1423 11.4428C23.0002 11.1408 22.995 10.889 23.085 10.649L21.9715 10.2314C21.757 10.8033 21.8026 11.3887 22.0663 11.9492L23.1423 11.4428ZM23.078 10.6666C23.1912 10.3918 23.4033 10.1629 23.7722 9.98817L23.2631 8.91345C22.6679 9.19536 22.2204 9.62611 21.9784 10.2138L23.078 10.6666ZM23.7958 9.9763C24.0913 9.81986 24.3503 9.80444 24.6136 9.89734L25.0094 8.77595C24.41 8.56442 23.8065 8.62511 23.2394 8.92531L23.7958 9.9763ZM24.6234 9.90073C24.9328 10.0038 25.1555 10.1919 25.3134 10.4901L26.3644 9.93368C26.0656 9.36934 25.6034 8.97387 24.9995 8.77256L24.6234 9.90073ZM25.2995 10.462L32.8342 26.7111L33.913 26.2108L26.3783 9.96176L25.2995 10.462ZM33.3736 25.8664H31.547V27.0556H33.3736V25.8664ZM32.0874 26.709L39.546 10.4599L38.4652 9.96384L31.0066 26.2129L32.0874 26.709ZM39.5311 10.4901C39.689 10.1919 39.9117 10.0039 40.2211 9.90073L39.8451 8.77256C39.2411 8.97387 38.7789 9.36934 38.4801 9.93368L39.5311 10.4901ZM40.2121 9.90364C40.5426 9.79928 40.87 9.82018 41.2246 9.98817L41.7337 8.91345C41.1243 8.62478 40.4876 8.56958 39.854 8.76965L40.2121 9.90364ZM41.2377 9.99415C41.5603 10.1376 41.7393 10.3381 41.8317 10.6001L42.9531 10.2043C42.7412 9.60369 42.3113 9.16997 41.7206 8.90746L41.2377 9.99415ZM41.8317 10.6001C41.9295 10.8771 41.9178 11.1464 41.7783 11.4428L42.8543 11.9492C43.1208 11.383 43.1598 10.7898 42.9531 10.2043L41.8317 10.6001ZM41.7791 11.4412L33.7116 28.4514L34.7861 28.961L42.8536 11.9508L41.7791 11.4412ZM33.7076 28.4601C33.5485 28.81 33.3659 29.0309 33.1792 29.1649C32.9982 29.2948 32.7797 29.3674 32.4984 29.3674V30.5565C33.0035 30.5565 33.47 30.4198 33.8724 30.1311C34.2693 29.8465 34.5687 29.4395 34.7902 28.9522L33.7076 28.4601ZM52.5853 28.7823L52.2806 29.2929L52.2867 29.2965L52.5853 28.7823ZM48.856 24.9769L48.3397 25.2719L48.856 24.9769ZM47.448 19.5732H46.8533L46.8534 19.5807L47.448 19.5732ZM47.9807 0.812537L47.575 0.377855L47.5675 0.384848L47.5603 0.392095L47.9807 0.812537ZM51.3295 12.4951H50.7349V14.1374L51.7863 12.8758L51.3295 12.4951ZM54.526 9.98356L54.7876 10.5176L54.7919 10.5154L54.526 9.98356ZM63.659 10.4402L63.3392 10.9415L63.3454 10.9454L63.659 10.4402ZM67.1219 14.2076L66.5951 14.4835L66.6006 14.4935L67.1219 14.2076ZM67.0078 24.9769L66.495 24.6757L66.4915 24.6819L67.0078 24.9769ZM63.2785 28.7823L63.5771 29.2965L63.5832 29.2929L63.2785 28.7823ZM61.3758 25.8141L61.6817 26.324L61.6909 26.3183L61.3758 25.8141ZM63.7732 23.2264L63.2539 22.9365L63.2489 22.9459L63.7732 23.2264ZM63.7732 15.92L63.2516 16.2056L63.2569 16.215L63.7732 15.92ZM61.3758 13.4084L61.0606 13.9127L61.0698 13.9183L61.3758 13.4084ZM54.4499 13.4084L54.7559 13.9183L54.7595 13.9161L54.4499 13.4084ZM52.0525 15.92L52.574 16.2056L52.0525 15.92ZM52.0525 23.2264L51.5282 23.5068L52.0525 23.2264ZM54.4499 25.8141L54.1348 26.3183L54.1421 26.3228L54.1495 26.3272L54.4499 25.8141ZM57.9128 29.5576C56.0294 29.5576 54.3582 29.1241 52.8838 28.2681L52.2867 29.2965C53.9582 30.267 55.8387 30.7468 57.9128 30.7468V29.5576ZM52.89 28.2717C51.4054 27.3857 50.235 26.1917 49.3722 24.6819L48.3397 25.2719C49.3035 26.9585 50.6193 28.3015 52.2806 29.2929L52.89 28.2717ZM49.3722 24.6819C48.5134 23.1789 48.0667 21.4781 48.0425 19.5657L46.8534 19.5807C46.88 21.6766 47.372 23.5783 48.3397 25.2719L49.3722 24.6819ZM48.0426 19.5732V2.22054H46.8534V19.5732H48.0426ZM48.0426 2.22054C48.0426 1.76717 48.1756 1.45856 48.4012 1.23298L47.5603 0.392095C47.0755 0.87686 46.8534 1.50691 46.8534 2.22054H48.0426ZM48.3864 1.24722C48.6485 1.00266 48.9693 0.874375 49.3887 0.874375V-0.314815C48.6919 -0.314815 48.0741 -0.0879242 47.575 0.377855L48.3864 1.24722ZM49.3887 0.874375C49.8421 0.874375 50.1507 1.0074 50.3763 1.23298L51.2172 0.392095C50.7324 -0.0926709 50.1024 -0.314815 49.3887 -0.314815V0.874375ZM50.3763 1.23298C50.6019 1.45856 50.7349 1.76717 50.7349 2.22054H51.9241C51.9241 1.50691 51.7019 0.87686 51.2172 0.392095L50.3763 1.23298ZM50.7349 2.22054V12.4951H51.9241V2.22054H50.7349ZM51.7863 12.8758C52.6207 11.8744 53.6198 11.0895 54.7876 10.5175L54.2645 9.44958C52.9461 10.0953 51.8141 10.9848 50.8727 12.1145L51.7863 12.8758ZM54.7919 10.5154C55.9733 9.92472 57.2642 9.62681 58.6739 9.62681V8.43762C57.0901 8.43762 55.6157 8.77394 54.2601 9.45174L54.7919 10.5154ZM58.6739 9.62681C60.4198 9.62681 61.9693 10.0676 63.3392 10.9415L63.9788 9.93893C62.4059 8.93554 60.632 8.43762 58.6739 8.43762V9.62681ZM63.3454 10.9454C64.7227 11.8003 65.8052 12.9752 66.5952 14.4835L67.6486 13.9317C66.7643 12.2434 65.5381 10.9067 63.9726 9.93502L63.3454 10.9454ZM66.6006 14.4935C67.4097 15.9688 67.8212 17.657 67.8212 19.5732H69.0104C69.0104 17.481 68.5593 15.5921 67.6433 13.9217L66.6006 14.4935ZM67.8212 19.5732C67.8212 21.4804 67.3758 23.1761 66.4951 24.6757L67.5205 25.278C68.5171 23.581 69.0104 21.6743 69.0104 19.5732H67.8212ZM66.4915 24.6819C65.6287 26.1917 64.4583 27.3857 62.9738 28.2717L63.5832 29.2929C65.2444 28.3015 66.5602 26.9585 67.524 25.2719L66.4915 24.6819ZM62.9799 28.2681C61.5067 29.1235 59.8231 29.5576 57.9128 29.5576V30.7468C60.0109 30.7468 61.9044 30.2677 63.577 29.2965L62.9799 28.2681ZM57.9128 27.3219C59.3041 27.3219 60.566 26.9933 61.6817 26.3239L61.0698 25.3042C60.156 25.8525 59.1093 26.1328 57.9128 26.1328V27.3219ZM61.6909 26.3183C62.7968 25.6271 63.6667 24.686 64.2975 23.5068L63.2489 22.9459C62.7126 23.9485 61.9843 24.7326 61.0606 25.3098L61.6909 26.3183ZM64.2924 23.5162C64.9544 22.33 65.2811 21.0112 65.2811 19.5732H64.0919C64.0919 20.8243 63.8097 21.941 63.254 22.9366L64.2924 23.5162ZM65.2811 19.5732C65.2811 18.1121 64.9554 16.7905 64.2894 15.625L63.2569 16.215C63.8087 17.1806 64.0919 18.2944 64.0919 19.5732H65.2811ZM64.2947 15.6344C63.6619 14.4789 62.7894 13.5632 61.6817 12.8986L61.0698 13.9183C61.9916 14.4714 62.7174 15.2301 63.2517 16.2056L64.2947 15.6344ZM61.6909 12.9042C60.574 12.2061 59.3087 11.8625 57.9128 11.8625V13.0517C59.1047 13.0517 60.148 13.3423 61.0606 13.9126L61.6909 12.9042ZM57.9128 11.8625C56.5399 11.8625 55.2777 12.2073 54.1404 12.9008L54.7595 13.9161C55.7024 13.3411 56.7489 13.0517 57.9128 13.0517V11.8625ZM54.144 12.8986C53.0363 13.5632 52.1638 14.4789 51.531 15.6344L52.574 16.2056C53.1082 15.2301 53.834 14.4714 54.7558 13.9183L54.144 12.8986ZM51.531 15.6344C50.8937 16.7982 50.5827 18.1164 50.5827 19.5732H51.7719C51.7719 18.2901 52.0443 17.1729 52.574 16.2056L51.531 15.6344ZM50.5827 19.5732C50.5827 21.0069 50.8946 22.3223 51.5282 23.5068L52.5768 22.9459C52.0434 21.9487 51.7719 20.8286 51.7719 19.5732H50.5827ZM51.5282 23.5068C52.159 24.686 53.0289 25.6271 54.1348 26.3183L54.7651 25.3098C53.8414 24.7326 53.1131 23.9485 52.5768 22.9459L51.5282 23.5068ZM54.1495 26.3272C55.2857 26.9922 56.5446 27.3219 57.9128 27.3219V26.1328C56.7442 26.1328 55.6945 25.8536 54.7503 25.3009L54.1495 26.3272ZM79.3801 29.0867L79.0913 29.6066L79.1028 29.6127L79.3801 29.0867ZM76.1074 25.776L75.5851 26.0601L75.589 26.0671L76.1074 25.776ZM75.4605 9.71719L75.0401 9.29674L75.4605 9.71719ZM78.2385 9.71719L77.8038 10.1229L77.8178 10.1379L77.8328 10.1519L78.2385 9.71719ZM79.6084 23.9875L79.0913 24.281L79.0948 24.2871L79.6084 23.9875ZM81.7775 26.0424L81.5115 26.5743L81.5236 26.58L81.7775 26.0424ZM87.752 26.0424L87.4861 25.5105L87.4797 25.5138L87.752 26.0424ZM89.8069 24.2919L90.2964 24.6295L89.8069 24.2919ZM90.568 21.8184V21.2238H89.9734V21.8184H90.568ZM92.9654 21.8184H93.56V21.2238H92.9654V21.8184ZM91.7857 26.0804L91.2803 25.7671L91.2758 25.7745L91.7857 26.0804ZM88.6272 29.0867L88.3418 28.5651L88.3376 28.5674L88.6272 29.0867ZM91.1007 29.4672L90.6661 29.8729L90.68 29.8879L90.695 29.9019L91.1007 29.4672ZM91.1007 9.67913L90.695 9.24445L90.6875 9.25144L90.6803 9.25869L91.1007 9.67913ZM93.9167 29.4672L94.3372 29.8877L94.3444 29.8804L94.3514 29.8729L93.9167 29.4672ZM84.0988 29.5957C82.4342 29.5957 80.9582 29.2466 79.6574 28.5607L79.1028 29.6127C80.5926 30.3982 82.2624 30.7849 84.0988 30.7849V29.5957ZM79.6689 28.5669C78.4009 27.8625 77.3871 26.8408 76.6259 25.4849L75.589 26.0671C76.4514 27.6033 77.6194 28.7887 79.0913 29.6065L79.6689 28.5669ZM76.6298 25.4919C75.9022 24.1541 75.5224 22.4819 75.5224 20.4484H74.3332C74.3332 22.6263 74.7398 24.5058 75.5851 26.0601L76.6298 25.4919ZM75.5224 20.4484V11.0871H74.3332V20.4484H75.5224ZM75.5224 11.0871C75.5224 10.6675 75.6502 10.3684 75.881 10.1376L75.0401 9.29674C74.5605 9.77631 74.3332 10.3905 74.3332 11.0871H75.5224ZM75.881 10.1376C76.1455 9.87313 76.4616 9.74097 76.8685 9.74097V8.55178C76.1592 8.55178 75.5367 8.80016 75.0401 9.29674L75.881 10.1376ZM76.8685 9.74097C77.2752 9.74097 77.5698 9.87224 77.8038 10.1229L78.6731 9.31148C78.1967 8.80105 77.5781 8.55178 76.8685 8.55178V9.74097ZM77.8328 10.1519C78.0834 10.3858 78.2147 10.6805 78.2147 11.0871H79.4039C79.4039 10.3775 79.1546 9.7589 78.6442 9.2825L77.8328 10.1519ZM78.2147 11.0871V20.4484H79.4039V11.0871H78.2147ZM78.2147 20.4484C78.2147 21.9404 78.4942 23.2289 79.0913 24.281L80.1255 23.694C79.6571 22.8687 79.4039 21.7978 79.4039 20.4484H78.2147ZM79.0948 24.2871C79.6836 25.2964 80.4911 26.064 81.5116 26.5742L82.0434 25.5106C81.2373 25.1075 80.5987 24.5051 80.122 23.6879L79.0948 24.2871ZM81.5236 26.58C82.5261 27.0534 83.6419 27.2839 84.8599 27.2839V26.0947C83.7946 26.0947 82.8555 25.8939 82.0314 25.5047L81.5236 26.58ZM84.8599 27.2839C86.0304 27.2839 87.0905 27.052 88.0243 26.571L87.4797 25.5138C86.7391 25.8953 85.8711 26.0947 84.8599 26.0947V27.2839ZM88.0179 26.5742C88.9629 26.1017 89.7276 25.4542 90.2964 24.6295L89.3174 23.9543C88.8714 24.601 88.2662 25.1205 87.4861 25.5106L88.0179 26.5742ZM90.2964 24.6295C90.8738 23.7922 91.1626 22.8494 91.1626 21.8184H89.9734C89.9734 22.6139 89.7548 23.3202 89.3174 23.9543L90.2964 24.6295ZM90.568 22.413H92.9654V21.2238H90.568V22.413ZM92.3708 21.8184C92.3708 23.2868 92.0053 24.5979 91.2804 25.7671L92.2911 26.3937C93.1391 25.026 93.56 23.4957 93.56 21.8184H92.3708ZM91.2758 25.7745C90.5711 26.9491 89.5972 27.8782 88.3418 28.5651L88.9126 29.6083C90.3464 28.8238 91.4781 27.7487 92.2956 26.3863L91.2758 25.7745ZM88.3376 28.5674C87.1176 29.2478 85.7101 29.5957 84.0988 29.5957V30.7849C85.887 30.7849 87.4984 30.397 88.9168 29.606L88.3376 28.5674ZM92.5087 29.4054C92.0893 29.4054 91.7685 29.2771 91.5064 29.0326L90.695 29.9019C91.1941 30.3677 91.8119 30.5946 92.5087 30.5946V29.4054ZM91.5354 29.0615C91.2909 28.7995 91.1626 28.4787 91.1626 28.0592H89.9734C89.9734 28.7561 90.2003 29.3739 90.6661 29.8729L91.5354 29.0615ZM91.1626 28.0592V11.0871H89.9734V28.0592H91.1626ZM91.1626 11.0871C91.1626 10.6338 91.2956 10.3251 91.5212 10.0996L90.6803 9.25869C90.1955 9.74345 89.9734 10.3735 89.9734 11.0871H91.1626ZM91.5064 10.1138C91.7685 9.86925 92.0893 9.74097 92.5087 9.74097V8.55178C91.8119 8.55178 91.1941 8.77867 90.695 9.24445L91.5064 10.1138ZM92.5087 9.74097C92.9621 9.74097 93.2707 9.874 93.4963 10.0996L94.3372 9.25869C93.8524 8.77392 93.2224 8.55178 92.5087 8.55178V9.74097ZM93.4963 10.0996C93.7219 10.3251 93.8549 10.6338 93.8549 11.0871H95.0441C95.0441 10.3735 94.8219 9.74345 94.3372 9.25869L93.4963 10.0996ZM93.8549 11.0871V28.0592H95.0441V11.0871H93.8549ZM93.8549 28.0592C93.8549 28.4787 93.7266 28.7995 93.4821 29.0615L94.3514 29.8729C94.8172 29.3739 95.0441 28.7561 95.0441 28.0592H93.8549ZM93.4963 29.0468C93.2707 29.2724 92.9621 29.4054 92.5087 29.4054V30.5946C93.2224 30.5946 93.8524 30.3725 94.3372 29.8877L93.4963 29.0468ZM104.292 16.9855H103.697V17.5801H104.292V16.9855ZM105.395 12.9137L104.891 12.5986L104.889 12.6015L105.395 12.9137ZM108.44 10.0216L108.149 9.50283L108.44 10.0216ZM116.012 9.71719L115.675 10.2067L115.684 10.2133L115.694 10.2195L116.012 9.71719ZM116.888 11.4677L116.312 11.3185L116.309 11.3307L116.306 11.3431L116.888 11.4677ZM116.431 12.3049L116.823 12.7524L116.826 12.7493L116.431 12.3049ZM115.708 12.6473L115.602 12.0623L115.708 12.6473ZM114.795 12.6093L114.928 12.0299L114.921 12.0282L114.913 12.0266L114.795 12.6093ZM107.336 14.0934L106.916 13.6729L106.909 13.6801L107.336 14.0934ZM106.233 16.9855V17.5801H106.827V16.9855H106.233ZM102.922 29.5434L102.501 29.9638L102.51 29.9722L102.519 29.9803L102.922 29.5434ZM102.922 9.67913L103.342 10.0996L102.922 9.67913ZM105.738 9.67913L105.301 10.0824L105.317 10.0999L105.335 10.116L105.738 9.67913ZM105.738 29.5053L105.317 29.0849L105.309 29.0933L105.301 29.102L105.738 29.5053ZM104.886 16.9855C104.886 15.5637 105.229 14.3164 105.901 13.226L104.889 12.6015C104.091 13.8958 103.697 15.363 103.697 16.9855H104.886ZM105.9 13.2289C106.607 12.097 107.548 11.2025 108.73 10.5404L108.149 9.50283C106.795 10.2614 105.706 11.295 104.891 12.5986L105.9 13.2289ZM108.73 10.5404C109.906 9.88214 111.2 9.5507 112.626 9.5507V8.36151C111.007 8.36151 109.511 8.74041 108.149 9.50283L108.73 10.5404ZM112.626 9.5507C114.103 9.5507 115.086 9.80085 115.675 10.2067L116.35 9.22771C115.467 8.61874 114.193 8.36151 112.626 8.36151V9.5507ZM115.694 10.2195C116.017 10.4238 116.188 10.6174 116.27 10.7822C116.346 10.9341 116.368 11.1023 116.312 11.3185L117.463 11.6169C117.585 11.148 117.55 10.682 117.334 10.2504C117.125 9.83178 116.769 9.49262 116.331 9.21486L115.694 10.2195ZM116.306 11.3431C116.252 11.5986 116.153 11.7566 116.036 11.8605L116.826 12.7493C117.166 12.4473 117.372 12.0471 117.469 11.5923L116.306 11.3431ZM116.04 11.8574C115.922 11.9605 115.781 12.0298 115.602 12.0623L115.814 13.2324C116.193 13.1634 116.535 13.0044 116.823 12.7523L116.04 11.8574ZM115.602 12.0623C115.416 12.0961 115.194 12.0913 114.928 12.0299L114.661 13.1887C115.055 13.2795 115.442 13.3001 115.814 13.2324L115.602 12.0623ZM114.913 12.0266C113.229 11.6844 111.685 11.6518 110.293 11.952L110.544 13.1144C111.74 12.8564 113.114 12.8745 114.676 13.192L114.913 12.0266ZM110.293 11.952C108.913 12.2496 107.774 12.8142 106.916 13.673L107.757 14.5138C108.42 13.8504 109.336 13.3749 110.544 13.1144L110.293 11.952ZM106.909 13.6801C106.054 14.5639 105.638 15.6816 105.638 16.9855H106.827C106.827 15.9555 107.147 15.1451 107.764 14.5067L106.909 13.6801ZM106.233 16.3909H104.292V17.5801H106.233V16.3909ZM104.33 29.4054C103.816 29.4054 103.511 29.278 103.325 29.1064L102.519 29.9803C102.992 30.4176 103.626 30.5946 104.33 30.5946V29.4054ZM103.342 29.1229C103.159 28.9399 103.022 28.632 103.022 28.0973H101.833C101.833 28.831 102.025 29.4871 102.501 29.9638L103.342 29.1229ZM103.022 28.0973V11.0871H101.833V28.0973H103.022ZM103.022 11.0871C103.022 10.5858 103.155 10.2868 103.342 10.0996L102.501 9.25869C102.029 9.73105 101.833 10.3707 101.833 11.0871H103.022ZM103.342 10.0996C103.53 9.91233 103.829 9.77902 104.33 9.77902V8.58983C103.613 8.58983 102.974 8.78633 102.501 9.25869L103.342 10.0996ZM104.33 9.77902C104.868 9.77902 105.149 9.91804 105.301 10.0824L106.175 9.27583C105.718 8.78062 105.06 8.58983 104.33 8.58983V9.77902ZM105.335 10.116C105.499 10.2678 105.638 10.5486 105.638 11.0871H106.827C106.827 10.3572 106.636 9.69934 106.141 9.24222L105.335 10.116ZM105.638 11.0871V28.0973H106.827V11.0871H105.638ZM105.638 28.0973C105.638 28.5986 105.505 28.8976 105.317 29.0849L106.158 29.9257C106.631 29.4534 106.827 28.8137 106.827 28.0973H105.638ZM105.301 29.102C105.149 29.2664 104.868 29.4054 104.33 29.4054V30.5946C105.06 30.5946 105.718 30.4038 106.175 29.9086L105.301 29.102ZM124.243 28.7823L123.923 29.2836L123.93 29.2875L124.243 28.7823ZM120.742 25.0149L120.215 25.2909L120.221 25.3008L120.742 25.0149ZM120.856 14.2076L120.344 13.9064L120.34 13.9126L120.856 14.2076ZM124.624 10.4402L124.922 10.9544L124.925 10.9529L124.624 10.4402ZM135.317 10.4402L135.012 10.9508L135.018 10.9544L135.317 10.4402ZM139.046 14.2076L138.53 14.5026L138.533 14.5087L139.046 14.2076ZM140.454 19.6112V20.2058H141.049V19.6112H140.454ZM138.97 19.6112V19.0166H138.375V19.6112H138.97ZM137.676 25.0149L137.153 24.7325L137.151 24.7355L137.676 25.0149ZM134.213 28.7823L134.527 29.2875L134.533 29.2836L134.213 28.7823ZM133.452 25.8141L133.758 26.324L133.767 26.3183L133.452 25.8141ZM135.85 23.2644L136.371 23.55L136.374 23.5449L135.85 23.2644ZM135.85 15.9581L135.325 16.2385L135.328 16.2436L135.85 15.9581ZM133.452 13.4084L133.137 13.9127L133.146 13.9183L133.452 13.4084ZM126.526 13.4084L126.832 13.9183L126.836 13.9161L126.526 13.4084ZM124.091 15.9581L123.572 15.6683L123.569 15.6725L124.091 15.9581ZM124.091 23.2644L123.567 23.5449L123.571 23.5522L123.575 23.5594L124.091 23.2644ZM126.526 25.8141L126.211 26.3183L126.219 26.3228L126.226 26.3272L126.526 25.8141ZM137.105 29.5053L136.671 29.911L136.685 29.926L136.7 29.94L137.105 29.5053ZM136.573 22.275L135.987 22.1701L135.978 22.2222V22.275H136.573ZM137.296 18.2413L137.532 17.6958L136.843 17.3968L136.71 18.1364L137.296 18.2413ZM140.454 19.6112H141.049V19.221L140.691 19.0657L140.454 19.6112ZM139.883 29.5053L140.304 29.9257L139.883 29.5053ZM129.228 29.5576C127.479 29.5576 125.927 29.1279 124.557 28.2771L123.93 29.2875C125.502 30.2633 127.273 30.7468 129.228 30.7468V29.5576ZM124.563 28.281C123.178 27.3976 122.079 26.2169 121.264 24.729L120.221 25.3008C121.13 26.9588 122.365 28.2896 123.923 29.2836L124.563 28.281ZM121.269 24.739C120.481 23.235 120.081 21.5301 120.081 19.6112H118.892C118.892 21.7007 119.329 23.5983 120.215 25.2908L121.269 24.739ZM120.081 19.6112C120.081 17.7011 120.515 16.0031 121.373 14.5026L120.34 13.9126C119.371 15.6085 118.892 17.513 118.892 19.6112H120.081ZM121.369 14.5087C122.257 12.9969 123.44 11.8153 124.922 10.9544L124.325 9.92601C122.662 10.8917 121.333 12.2217 120.344 13.9065L121.369 14.5087ZM124.925 10.9529C126.426 10.0715 128.109 9.62681 129.989 9.62681V8.43762C127.912 8.43762 126.018 8.93158 124.323 9.9275L124.925 10.9529ZM129.989 9.62681C131.87 9.62681 133.539 10.0715 135.012 10.9508L135.622 9.92963C133.949 8.93158 132.066 8.43762 129.989 8.43762V9.62681ZM135.018 10.9544C136.499 11.8144 137.668 12.9941 138.53 14.5026L139.562 13.9126C138.598 12.2245 137.28 10.8926 135.615 9.92601L135.018 10.9544ZM138.533 14.5087C139.414 16.0083 139.86 17.704 139.86 19.6112H141.049C141.049 17.5101 140.555 15.6034 139.559 13.9065L138.533 14.5087ZM140.454 19.0166H138.97V20.2058H140.454V19.0166ZM138.375 19.6112C138.375 21.5272 137.964 23.2297 137.153 24.7325L138.199 25.2973C139.114 23.6036 139.565 21.7036 139.565 19.6112H138.375ZM137.151 24.7355C136.361 26.22 135.277 27.3986 133.894 28.281L134.533 29.2836C136.093 28.2886 137.317 26.9556 138.201 25.2943L137.151 24.7355ZM133.9 28.2771C132.529 29.1279 130.977 29.5576 129.228 29.5576V30.7468C131.183 30.7468 132.955 30.2633 134.527 29.2875L133.9 28.2771ZM129.989 27.3219C131.381 27.3219 132.642 26.9933 133.758 26.3239L133.146 25.3042C132.232 25.8525 131.186 26.1328 129.989 26.1328V27.3219ZM133.767 26.3183C134.87 25.6292 135.74 24.7035 136.371 23.55L135.328 22.9788C134.793 23.9564 134.064 24.7304 133.137 25.3098L133.767 26.3183ZM136.374 23.5449C137.008 22.3604 137.319 21.045 137.319 19.6112H136.13C136.13 20.8667 135.859 21.9867 135.325 22.984L136.374 23.5449ZM137.319 19.6112C137.319 18.1544 137.008 16.8362 136.371 15.6725L135.328 16.2436C135.858 17.2109 136.13 18.3282 136.13 19.6112H137.319ZM136.374 15.6776C135.742 14.4964 134.869 13.5653 133.758 12.8986L133.146 13.9183C134.065 14.4693 134.79 15.2379 135.325 16.2385L136.374 15.6776ZM133.767 12.9042C132.65 12.2061 131.385 11.8625 129.989 11.8625V13.0517C131.181 13.0517 132.224 13.3423 133.137 13.9126L133.767 12.9042ZM129.989 11.8625C128.616 11.8625 127.354 12.2073 126.217 12.9008L126.836 13.9161C127.779 13.3411 128.825 13.0517 129.989 13.0517V11.8625ZM126.22 12.8986C125.112 13.5639 124.228 14.4919 123.572 15.6683L124.61 16.2478C125.171 15.2424 125.912 14.4707 126.832 13.9183L126.22 12.8986ZM123.569 15.6725C122.932 16.8362 122.621 18.1544 122.621 19.6112H123.81C123.81 18.3282 124.083 17.2109 124.612 16.2436L123.569 15.6725ZM122.621 19.6112C122.621 21.045 122.933 22.3604 123.567 23.5449L124.615 22.984C124.082 21.9867 123.81 20.8667 123.81 19.6112H122.621ZM123.575 23.5594C124.231 24.708 125.111 25.6306 126.211 26.3183L126.842 25.3098C125.912 24.729 125.169 23.9519 124.607 22.9694L123.575 23.5594ZM126.226 26.3272C127.362 26.9922 128.621 27.3219 129.989 27.3219V26.1328C128.821 26.1328 127.771 25.8536 126.827 25.3009L126.226 26.3272ZM138.513 29.4435C138.094 29.4435 137.773 29.3152 137.511 29.0706L136.7 29.94C137.199 30.4058 137.817 30.6326 138.513 30.6326V29.4435ZM137.54 29.0996C137.296 28.8376 137.167 28.5167 137.167 28.0973H135.978C135.978 28.7941 136.205 29.4119 136.671 29.911L137.54 29.0996ZM137.167 28.0973V22.275H135.978V28.0973H137.167ZM137.158 22.3799L137.881 18.3462L136.71 18.1364L135.987 22.1701L137.158 22.3799ZM137.059 18.7868L140.218 20.1567L140.691 19.0657L137.532 17.6958L137.059 18.7868ZM139.86 19.6112V28.0973H141.049V19.6112H139.86ZM139.86 28.0973C139.86 28.5043 139.727 28.8204 139.463 29.0849L140.304 29.9257C140.8 29.4292 141.049 28.8066 141.049 28.0973H139.86ZM139.463 29.0849C139.232 29.3156 138.933 29.4435 138.513 29.4435V30.6326C139.21 30.6326 139.824 30.4053 140.304 29.9257L139.463 29.0849ZM151.444 28.7823L151.14 29.2929L151.149 29.2985L151.444 28.7823ZM147.677 24.9769L147.161 25.2719L147.164 25.278L147.677 24.9769ZM147.563 14.2076L147.04 13.9252L147.038 13.9282L147.563 14.2076ZM151.064 10.4402L151.377 10.9454L151.384 10.9415L151.064 10.4402ZM160.197 9.98356L159.931 10.5155L159.94 10.5196L160.197 9.98356ZM163.393 12.4951L162.931 12.8693L163.988 14.1746V12.4951H163.393ZM163.926 0.812537L163.52 0.377855L163.513 0.384848L163.506 0.392095L163.926 0.812537ZM165.867 24.9769L165.354 24.6757L165.351 24.6819L165.867 24.9769ZM162.138 28.7823L162.436 29.2965L162.442 29.2929L162.138 28.7823ZM160.273 25.8141L160.579 26.324L160.588 26.3183L160.273 25.8141ZM162.67 23.2264L162.146 22.9459L162.67 23.2264ZM162.67 15.92L162.149 16.2056L162.67 15.92ZM160.273 13.4084L159.958 13.9127L159.967 13.9183L160.273 13.4084ZM153.347 13.4084L153.653 13.9183L153.657 13.9161L153.347 13.4084ZM150.912 15.92L150.395 15.6249L150.39 15.6344L150.912 15.92ZM150.912 23.2264L150.387 23.5069L150.392 23.5162L150.912 23.2264ZM153.347 25.8141L153.032 26.3183L153.039 26.3228L153.047 26.3272L153.347 25.8141ZM156.81 29.5576C154.927 29.5576 153.241 29.1241 151.739 28.266L151.149 29.2985C152.844 30.267 154.736 30.7468 156.81 30.7468V29.5576ZM151.749 28.2717C150.263 27.3849 149.078 26.1889 148.19 24.6757L147.164 25.278C148.153 26.9614 149.48 28.3023 151.14 29.2929L151.749 28.2717ZM148.193 24.6819C147.336 23.1813 146.902 21.4833 146.902 19.5732H145.712C145.712 21.6714 146.192 23.5759 147.161 25.2719L148.193 24.6819ZM146.902 19.5732C146.902 17.6541 147.302 15.9636 148.088 14.4869L147.038 13.9282C146.15 15.5974 145.712 17.4839 145.712 19.5732H146.902ZM148.086 14.49C148.902 12.9783 149.998 11.8013 151.377 10.9454L150.75 9.93502C149.186 10.9057 147.949 12.2402 147.04 13.9252L148.086 14.49ZM151.384 10.9415C152.754 10.0676 154.303 9.62681 156.049 9.62681V8.43762C154.091 8.43762 152.317 8.93554 150.744 9.93893L151.384 10.9415ZM156.049 9.62681C157.459 9.62681 158.75 9.92472 159.931 10.5154L160.463 9.45174C159.107 8.77394 157.633 8.43762 156.049 8.43762V9.62681ZM159.94 10.5196C161.131 11.0914 162.126 11.8741 162.931 12.8693L163.855 12.121C162.936 10.9852 161.8 10.0935 160.454 9.44752L159.94 10.5196ZM163.988 12.4951V2.22054H162.799V12.4951H163.988ZM163.988 2.22054C163.988 1.76717 164.121 1.45856 164.347 1.23298L163.506 0.392095C163.021 0.87686 162.799 1.50691 162.799 2.22054H163.988ZM164.332 1.24722C164.594 1.00266 164.915 0.874375 165.334 0.874375V-0.314815C164.637 -0.314815 164.019 -0.0879245 163.52 0.377855L164.332 1.24722ZM165.334 0.874375C165.787 0.874375 166.096 1.0074 166.322 1.23298L167.163 0.392095C166.678 -0.0926709 166.048 -0.314815 165.334 -0.314815V0.874375ZM166.322 1.23298C166.547 1.45856 166.68 1.76717 166.68 2.22054H167.869C167.869 1.50691 167.647 0.87686 167.163 0.392095L166.322 1.23298ZM166.68 2.22054V19.5732H167.869V2.22054H166.68ZM166.68 19.5732C166.68 21.4804 166.235 23.1761 165.354 24.6757L166.38 25.278C167.376 23.581 167.869 21.6743 167.869 19.5732H166.68ZM165.351 24.6819C164.488 26.1917 163.317 27.3857 161.833 28.2717L162.442 29.2929C164.104 28.3015 165.419 26.9585 166.383 25.2719L165.351 24.6819ZM161.839 28.2681C160.365 29.1241 158.693 29.5576 156.81 29.5576V30.7468C158.884 30.7468 160.765 30.267 162.436 29.2965L161.839 28.2681ZM156.81 27.3219C158.201 27.3219 159.463 26.9933 160.579 26.3239L159.967 25.3042C159.053 25.8525 158.006 26.1328 156.81 26.1328V27.3219ZM160.588 26.3183C161.694 25.6271 162.564 24.686 163.195 23.5068L162.146 22.9459C161.61 23.9485 160.881 24.7326 159.958 25.3098L160.588 26.3183ZM163.195 23.5068C163.828 22.3223 164.14 21.0069 164.14 19.5732H162.951C162.951 20.8286 162.679 21.9487 162.146 22.9459L163.195 23.5068ZM164.14 19.5732C164.14 18.1164 163.829 16.7982 163.192 15.6344L162.149 16.2056C162.678 17.1729 162.951 18.2901 162.951 19.5732H164.14ZM163.192 15.6344C162.559 14.4789 161.687 13.5632 160.579 12.8986L159.967 13.9183C160.889 14.4714 161.615 15.2301 162.149 16.2056L163.192 15.6344ZM160.588 12.9042C159.471 12.2061 158.206 11.8625 156.81 11.8625V13.0517C158.002 13.0517 159.045 13.3423 159.958 13.9126L160.588 12.9042ZM156.81 11.8625C155.437 11.8625 154.175 12.2073 153.038 12.9008L153.657 13.9161C154.6 13.3411 155.646 13.0517 156.81 13.0517V11.8625ZM153.041 12.8986C151.936 13.5618 151.053 14.4744 150.395 15.625L151.428 16.215C151.988 15.2345 152.729 14.4728 153.653 13.9183L153.041 12.8986ZM150.39 15.6344C149.753 16.7982 149.442 18.1164 149.442 19.5732H150.631C150.631 18.2901 150.903 17.1729 151.433 16.2056L150.39 15.6344ZM149.442 19.5732C149.442 21.0069 149.754 22.3223 150.387 23.5068L151.436 22.9459C150.903 21.9487 150.631 20.8286 150.631 19.5732H149.442ZM150.392 23.5162C151.048 24.6906 151.928 25.6285 153.032 26.3183L153.662 25.3098C152.736 24.7311 151.993 23.9439 151.431 22.9366L150.392 23.5162ZM153.047 26.3272C154.183 26.9922 155.442 27.3219 156.81 27.3219V26.1328C155.641 26.1328 154.592 25.8536 153.647 25.3009L153.047 26.3272ZM178.962 28.7823L178.642 29.2836L178.649 29.2875L178.962 28.7823ZM175.461 25.0149L174.934 25.2909L174.94 25.3008L175.461 25.0149ZM175.575 14.2076L175.063 13.9064L175.059 13.9126L175.575 14.2076ZM179.343 10.4402L179.641 10.9544L179.644 10.9529L179.343 10.4402ZM190.036 10.4402L189.731 10.9508L189.737 10.9544L190.036 10.4402ZM193.765 14.2076L193.249 14.5026L193.253 14.5087L193.765 14.2076ZM195.173 19.6112V20.2058H195.768V19.6112H195.173ZM193.689 19.6112V19.0166H193.095V19.6112H193.689ZM192.395 25.0149L191.872 24.7325L191.87 24.7355L192.395 25.0149ZM188.932 28.7823L189.246 29.2875L189.252 29.2836L188.932 28.7823ZM188.171 25.8141L188.477 26.324L188.486 26.3183L188.171 25.8141ZM190.569 23.2644L191.09 23.55L191.093 23.5449L190.569 23.2644ZM190.569 15.9581L190.044 16.2385L190.047 16.2436L190.569 15.9581ZM188.171 13.4084L187.856 13.9127L187.865 13.9183L188.171 13.4084ZM181.245 13.4084L181.551 13.9183L181.555 13.9161L181.245 13.4084ZM178.81 15.9581L178.291 15.6683L178.288 15.6725L178.81 15.9581ZM178.81 23.2644L178.286 23.5449L178.29 23.5522L178.294 23.5594L178.81 23.2644ZM181.245 25.8141L180.93 26.3183L180.938 26.3228L180.945 26.3272L181.245 25.8141ZM191.824 29.5053L191.39 29.911L191.404 29.926L191.419 29.94L191.824 29.5053ZM191.292 22.275L190.706 22.1701L190.697 22.2222V22.275H191.292ZM192.015 18.2413L192.251 17.6958L191.562 17.3968L191.429 18.1364L192.015 18.2413ZM195.173 19.6112H195.768V19.221L195.41 19.0657L195.173 19.6112ZM194.602 29.5053L195.023 29.9257L194.602 29.5053ZM183.947 29.5576C182.198 29.5576 180.646 29.1279 179.276 28.2771L178.649 29.2875C180.221 30.2633 181.993 30.7468 183.947 30.7468V29.5576ZM179.282 28.281C177.897 27.3976 176.799 26.2169 175.983 24.729L174.94 25.3008C175.849 26.9588 177.084 28.2896 178.642 29.2836L179.282 28.281ZM175.988 24.739C175.2 23.235 174.8 21.5301 174.8 19.6112H173.611C173.611 21.7007 174.048 23.5983 174.935 25.2908L175.988 24.739ZM174.8 19.6112C174.8 17.7011 175.234 16.0031 176.092 14.5026L175.059 13.9126C174.09 15.6085 173.611 17.513 173.611 19.6112H174.8ZM176.088 14.5087C176.976 12.9969 178.159 11.8153 179.641 10.9544L179.044 9.92601C177.381 10.8917 176.052 12.2217 175.063 13.9065L176.088 14.5087ZM179.644 10.9529C181.145 10.0715 182.828 9.62681 184.708 9.62681V8.43762C182.631 8.43762 180.737 8.93158 179.042 9.9275L179.644 10.9529ZM184.708 9.62681C186.589 9.62681 188.258 10.0715 189.731 10.9508L190.341 9.92963C188.668 8.93158 186.786 8.43762 184.708 8.43762V9.62681ZM189.737 10.9544C191.219 11.8144 192.387 12.9941 193.249 14.5026L194.281 13.9126C193.317 12.2245 191.999 10.8926 190.335 9.92601L189.737 10.9544ZM193.253 14.5087C194.133 16.0083 194.579 17.704 194.579 19.6112H195.768C195.768 17.5101 195.275 15.6034 194.278 13.9065L193.253 14.5087ZM195.173 19.0166H193.689V20.2058H195.173V19.0166ZM193.095 19.6112C193.095 21.5272 192.683 23.2297 191.872 24.7325L192.919 25.2973C193.833 23.6036 194.284 21.7036 194.284 19.6112H193.095ZM191.87 24.7355C191.08 26.22 189.996 27.3986 188.613 28.281L189.252 29.2836C190.812 28.2886 192.036 26.9556 192.92 25.2943L191.87 24.7355ZM188.619 28.2771C187.248 29.1279 185.696 29.5576 183.947 29.5576V30.7468C185.902 30.7468 187.674 30.2633 189.246 29.2875L188.619 28.2771ZM184.708 27.3219C186.1 27.3219 187.362 26.9933 188.477 26.3239L187.865 25.3042C186.952 25.8525 185.905 26.1328 184.708 26.1328V27.3219ZM188.486 26.3183C189.589 25.6292 190.459 24.7035 191.09 23.55L190.047 22.9788C189.512 23.9564 188.783 24.7304 187.856 25.3098L188.486 26.3183ZM191.093 23.5449C191.727 22.3604 192.039 21.045 192.039 19.6112H190.849C190.849 20.8667 190.578 21.9867 190.044 22.984L191.093 23.5449ZM192.039 19.6112C192.039 18.1544 191.728 16.8362 191.09 15.6725L190.047 16.2436C190.577 17.2109 190.849 18.3282 190.849 19.6112H192.039ZM191.093 15.6776C190.461 14.4964 189.588 13.5653 188.477 12.8986L187.865 13.9183C188.784 14.4693 189.509 15.2379 190.044 16.2385L191.093 15.6776ZM188.486 12.9042C187.369 12.2061 186.104 11.8625 184.708 11.8625V13.0517C185.9 13.0517 186.944 13.3423 187.856 13.9126L188.486 12.9042ZM184.708 11.8625C183.335 11.8625 182.073 12.2073 180.936 12.9008L181.555 13.9161C182.498 13.3411 183.544 13.0517 184.708 13.0517V11.8625ZM180.94 12.8986C179.831 13.5639 178.947 14.4919 178.291 15.6683L179.329 16.2478C179.89 15.2424 180.631 14.4707 181.551 13.9183L180.94 12.8986ZM178.288 15.6725C177.651 16.8362 177.34 18.1544 177.34 19.6112H178.529C178.529 18.3282 178.802 17.2109 179.332 16.2436L178.288 15.6725ZM177.34 19.6112C177.34 21.045 177.652 22.3604 178.286 23.5449L179.334 22.984C178.801 21.9867 178.529 20.8667 178.529 19.6112H177.34ZM178.294 23.5594C178.95 24.708 179.83 25.6306 180.93 26.3183L181.561 25.3098C180.631 24.729 179.888 23.9519 179.326 22.9694L178.294 23.5594ZM180.945 26.3272C182.081 26.9922 183.34 27.3219 184.708 27.3219V26.1328C183.54 26.1328 182.49 25.8536 181.546 25.3009L180.945 26.3272ZM193.232 29.4435C192.813 29.4435 192.492 29.3152 192.23 29.0706L191.419 29.94C191.918 30.4058 192.536 30.6326 193.232 30.6326V29.4435ZM192.259 29.0996C192.015 28.8376 191.886 28.5167 191.886 28.0973H190.697C190.697 28.7941 190.924 29.4119 191.39 29.911L192.259 29.0996ZM191.886 28.0973V22.275H190.697V28.0973H191.886ZM191.877 22.3799L192.6 18.3462L191.429 18.1364L190.706 22.1701L191.877 22.3799ZM191.778 18.7868L194.937 20.1567L195.41 19.0657L192.251 17.6958L191.778 18.7868ZM194.579 19.6112V28.0973H195.768V19.6112H194.579ZM194.579 28.0973C194.579 28.5043 194.446 28.8204 194.182 29.0849L195.023 29.9257C195.519 29.4292 195.768 28.8066 195.768 28.0973H194.579ZM194.182 29.0849C193.951 29.3156 193.652 29.4435 193.232 29.4435V30.6326C193.929 30.6326 194.543 30.4053 195.023 29.9257L194.182 29.0849Z" fill="#1560AC" mask="url(#path-1-outside-1_1_867)"/>
</svg>
