<svg width="257" height="42" viewBox="0 0 257 42" fill="none" xmlns="http://www.w3.org/2000/svg">
<path d="M14.5612 41.3224C11.7221 41.3224 9.20618 40.6992 7.01356 39.453C4.83031 38.2068 3.11558 36.478 1.86935 34.2666C0.623118 32.0646 0 29.5441 0 26.7049C0 23.8283 0.585635 21.2937 1.7569 19.101C2.93754 16.9178 4.55858 15.1937 6.62002 13.9287C8.69082 12.6637 11.0755 12.0312 13.7741 12.0312C16.4352 12.0312 18.7591 12.6356 20.7455 13.8444C22.7226 15.0531 24.2547 16.7304 25.3416 18.8761C26.4285 21.0125 26.972 23.4441 26.972 26.1708C26.972 26.733 26.794 27.1828 26.4379 27.5201C26.0912 27.8481 25.6368 28.0121 25.0745 28.0121H2.74077V24.6529H25.4962L23.2333 26.2833C23.2708 24.2499 22.9053 22.4274 22.137 20.8158C21.3593 19.2041 20.263 17.9438 18.8481 17.0349C17.4238 16.1166 15.7325 15.6575 13.7741 15.6575C11.7783 15.6575 10.0261 16.1307 8.51747 17.0771C7.00887 18.0235 5.84229 19.3306 5.01772 20.9985C4.19315 22.6664 3.78086 24.5685 3.78086 26.7049C3.78086 28.8413 4.24937 30.7341 5.18639 32.3832C6.11403 34.0324 7.38369 35.3301 8.99535 36.2765C10.607 37.2229 12.4623 37.6961 14.5612 37.6961C15.8262 37.6961 17.0959 37.4759 18.3702 37.0355C19.6539 36.5951 20.6799 36.0423 21.4483 35.377C21.8325 35.0584 22.2729 34.8897 22.7695 34.871C23.2567 34.8616 23.6737 34.9928 24.0204 35.2646C24.4795 35.6862 24.7185 36.1453 24.7372 36.642C24.756 37.1292 24.5545 37.5462 24.1328 37.8929C22.9709 38.8768 21.4998 39.692 19.7195 40.3385C17.9298 40.9944 16.2104 41.3224 14.5612 41.3224Z" fill="white"/>
<path d="M42.5874 41.0552C41.744 41.0552 41.1116 40.6007 40.6899 39.6918L29.0241 14.9265C28.8085 14.4673 28.7898 14.0129 28.9678 13.5631C29.1459 13.104 29.4973 12.7526 30.022 12.509C30.5092 12.2653 30.9824 12.2326 31.4416 12.4106C31.8913 12.5792 32.238 12.8931 32.4816 13.3523L43.6837 37.5835H41.5332L52.5666 13.3523C52.7821 12.865 53.1428 12.5418 53.6488 12.3825C54.1548 12.2232 54.6514 12.2466 55.1387 12.4527C55.6353 12.7057 55.9679 13.0665 56.1366 13.535C56.3146 14.0035 56.3006 14.4486 56.0944 14.8702L44.5832 39.6918C44.1615 40.6007 43.4963 41.0552 42.5874 41.0552Z" fill="white"/>
<path d="M76.3761 41.3224C73.6494 41.3224 71.1897 40.6899 68.9971 39.4249C66.8045 38.16 65.071 36.4359 63.7967 34.2526C62.513 32.06 61.8524 29.5956 61.8149 26.8596V2.05206C61.8149 1.41489 62.0023 0.913589 62.3771 0.548153C62.7425 0.182717 63.2392 0 63.867 0C64.4666 0 64.9492 0.182717 65.3146 0.548153C65.6801 0.913589 65.8628 1.41489 65.8628 2.05206V17.4988C67.0247 15.859 68.5614 14.5378 70.4729 13.5352C72.3751 12.5326 74.5021 12.0313 76.854 12.0313C79.5526 12.0313 81.9701 12.6731 84.1065 13.9568C86.2429 15.2312 87.9342 16.974 89.1804 19.1854C90.4267 21.3968 91.0498 23.8845 91.0498 26.6487C91.0498 29.4504 90.4079 31.9569 89.1242 34.1683C87.8499 36.3796 86.107 38.1225 83.8957 39.3968C81.6937 40.6805 79.1872 41.3224 76.3761 41.3224ZM76.3761 37.6399C78.4094 37.6399 80.2319 37.1574 81.8436 36.1922C83.4553 35.2271 84.7249 33.92 85.6526 32.2708C86.5896 30.631 87.0581 28.757 87.0581 26.6487C87.0581 24.5779 86.5896 22.7133 85.6526 21.0547C84.7249 19.3869 83.4553 18.0797 81.8436 17.1333C80.2319 16.1869 78.4094 15.7138 76.3761 15.7138C74.3803 15.7138 72.5765 16.1869 70.9649 17.1333C69.3532 18.0797 68.0929 19.3869 67.184 21.0547C66.2751 22.7133 65.8206 24.5779 65.8206 26.6487C65.8206 28.757 66.2751 30.631 67.184 32.2708C68.0929 33.92 69.3532 35.2271 70.9649 36.1922C72.5765 37.1574 74.3803 37.6399 76.3761 37.6399Z" fill="white"/>
<path d="M111.5 41.3646C109.008 41.3646 106.782 40.8492 104.824 39.8185C102.856 38.7878 101.305 37.2698 100.172 35.2646C99.0285 33.2688 98.4569 30.8372 98.4569 27.9699V14.2942C98.4569 13.732 98.649 13.2588 99.0332 12.8746C99.4174 12.4904 99.8905 12.2983 100.453 12.2983C101.052 12.2983 101.544 12.4904 101.929 12.8746C102.313 13.2588 102.505 13.732 102.505 14.2942V27.9699C102.505 30.1438 102.917 31.9288 103.742 33.325C104.566 34.7305 105.686 35.7846 107.101 36.4874C108.525 37.1808 110.132 37.5275 111.922 37.5275C113.637 37.5275 115.187 37.1948 116.574 36.5296C117.952 35.8643 119.043 34.9554 119.849 33.8029C120.655 32.641 121.058 31.3244 121.058 29.8533H123.953C123.85 32.0647 123.246 34.0371 122.14 35.7706C121.034 37.5041 119.554 38.8721 117.699 39.8747C115.843 40.8679 113.777 41.3646 111.5 41.3646ZM123.054 41.0554C122.463 41.0554 121.985 40.8726 121.62 40.5072C121.245 40.1324 121.058 39.6311 121.058 39.0033V14.2942C121.058 13.7039 121.245 13.2213 121.62 12.8465C121.985 12.4811 122.463 12.2983 123.054 12.2983C123.653 12.2983 124.145 12.4811 124.529 12.8465C124.914 13.2213 125.106 13.7039 125.106 14.2942V39.0033C125.106 39.6311 124.914 40.1324 124.529 40.5072C124.145 40.8726 123.653 41.0554 123.054 41.0554Z" fill="white"/>
<path d="M138.571 23.3454H136.251C136.355 21.1715 136.926 19.2225 137.966 17.4984C138.997 15.7837 140.346 14.4344 142.014 13.4505C143.673 12.476 145.519 11.9888 147.552 11.9888C149.164 11.9888 150.41 12.2137 151.291 12.6634C152.162 13.1226 152.495 13.7878 152.288 14.6593C152.148 15.1934 151.909 15.5447 151.572 15.7134C151.244 15.8914 150.841 15.9617 150.363 15.9242C149.894 15.8868 149.36 15.854 148.761 15.8258C146.802 15.6478 145.059 15.8493 143.532 16.4302C142.014 17.0018 140.805 17.8873 139.906 19.0867C139.016 20.2767 138.571 21.6963 138.571 23.3454ZM136.575 41.055C135.938 41.055 135.446 40.877 135.099 40.5209C134.752 40.1742 134.579 39.687 134.579 39.0592V14.2938C134.579 13.666 134.752 13.1788 135.099 12.8321C135.446 12.476 135.938 12.298 136.575 12.298C137.203 12.298 137.69 12.476 138.036 12.8321C138.393 13.1788 138.571 13.666 138.571 14.2938V39.0592C138.571 39.687 138.393 40.1742 138.036 40.5209C137.69 40.877 137.203 41.055 136.575 41.055Z" fill="white"/>
<path d="M169.211 41.3224C166.512 41.3224 164.095 40.6805 161.958 39.3968C159.822 38.1225 158.131 36.3796 156.885 34.1682C155.638 31.9569 155.015 29.4691 155.015 26.7049C155.015 23.9032 155.657 21.3967 156.941 19.1854C158.215 16.974 159.958 15.2312 162.169 13.9568C164.381 12.6731 166.868 12.0312 169.633 12.0312C172.406 12.0312 174.885 12.6731 177.068 13.9568C179.26 15.2312 180.999 16.974 182.282 19.1854C183.557 21.3967 184.213 23.9032 184.25 26.7049L182.62 27.9699C182.62 30.4905 182.034 32.758 180.863 34.7726C179.682 36.7872 178.084 38.3801 176.07 39.5514C174.055 40.732 171.769 41.3224 169.211 41.3224ZM169.633 37.6399C171.666 37.6399 173.479 37.1667 175.072 36.2203C176.665 35.2739 177.925 33.9668 178.853 32.2989C179.79 30.6404 180.258 28.7757 180.258 26.7049C180.258 24.5966 179.79 22.7226 178.853 21.0828C177.925 19.4337 176.665 18.1265 175.072 17.1614C173.479 16.1963 171.666 15.7137 169.633 15.7137C167.637 15.7137 165.833 16.1963 164.221 17.1614C162.61 18.1265 161.331 19.4337 160.384 21.0828C159.438 22.7226 158.965 24.5966 158.965 26.7049C158.965 28.7757 159.438 30.6404 160.384 32.2989C161.331 33.9668 162.61 35.2739 164.221 36.2203C165.833 37.1667 167.637 37.6399 169.633 37.6399ZM182.198 41.0553C181.598 41.0553 181.106 40.8726 180.722 40.5072C180.338 40.1324 180.146 39.6498 180.146 39.0595V30.0641L181.144 25.9178L184.25 26.7049V39.0595C184.25 39.6498 184.058 40.1324 183.674 40.5072C183.29 40.8726 182.798 41.0553 182.198 41.0553Z" fill="white"/>
<path d="M205.22 41.3224C202.456 41.3224 199.969 40.6805 197.757 39.3968C195.546 38.1225 193.803 36.3796 192.529 34.1683C191.245 31.9569 190.603 29.4504 190.603 26.6487C190.603 23.8845 191.226 21.3968 192.472 19.1854C193.719 16.974 195.41 15.2312 197.546 13.9568C199.683 12.6731 202.1 12.0313 204.799 12.0313C207.151 12.0313 209.273 12.5326 211.166 13.5352C213.059 14.5378 214.581 15.859 215.734 17.4988V2.05206C215.734 1.41489 215.926 0.913589 216.31 0.548153C216.694 0.182717 217.186 0 217.786 0C218.386 0 218.877 0.182717 219.262 0.548153C219.646 0.913589 219.838 1.41489 219.838 2.05206V26.8596C219.763 29.5956 219.088 32.06 217.814 34.2526C216.53 36.4359 214.797 38.16 212.614 39.4249C210.421 40.6899 207.957 41.3224 205.22 41.3224ZM205.22 37.6399C207.254 37.6399 209.067 37.1574 210.66 36.1922C212.253 35.2271 213.513 33.92 214.441 32.2708C215.378 30.631 215.846 28.757 215.846 26.6487C215.846 24.5779 215.378 22.7133 214.441 21.0547C213.513 19.3869 212.253 18.0797 210.66 17.1333C209.067 16.1869 207.254 15.7138 205.22 15.7138C203.225 15.7138 201.421 16.1869 199.809 17.1333C198.198 18.0797 196.919 19.3869 195.972 21.0547C195.026 22.7133 194.553 24.5779 194.553 26.6487C194.553 28.757 195.026 30.631 195.972 32.2708C196.919 33.92 198.198 35.2271 199.809 36.1922C201.421 37.1574 203.225 37.6399 205.22 37.6399Z" fill="white"/>
<path d="M241.961 41.3224C239.262 41.3224 236.845 40.6805 234.708 39.3968C232.572 38.1225 230.881 36.3796 229.634 34.1682C228.398 31.9569 227.779 29.4691 227.779 26.7049C227.779 23.9032 228.416 21.3967 229.691 19.1854C230.974 16.974 232.717 15.2312 234.919 13.9568C237.131 12.6731 239.618 12.0312 242.383 12.0312C245.156 12.0312 247.635 12.6731 249.818 13.9568C252.01 15.2312 253.749 16.974 255.032 19.1854C256.307 21.3967 256.963 23.9032 257 26.7049L255.37 27.9699C255.37 30.4905 254.784 32.758 253.613 34.7726C252.432 36.7872 250.834 38.3801 248.82 39.5514C246.805 40.732 244.519 41.3224 241.961 41.3224ZM242.383 37.6399C244.416 37.6399 246.229 37.1667 247.822 36.2203C249.424 35.2739 250.689 33.9668 251.617 32.2989C252.544 30.6404 253.008 28.7757 253.008 26.7049C253.008 24.5966 252.544 22.7226 251.617 21.0828C250.689 19.4337 249.424 18.1265 247.822 17.1614C246.229 16.1963 244.416 15.7137 242.383 15.7137C240.387 15.7137 238.583 16.1963 236.971 17.1614C235.36 18.1265 234.081 19.4337 233.134 21.0828C232.188 22.7226 231.715 24.5966 231.715 26.7049C231.715 28.7757 232.188 30.6404 233.134 32.2989C234.081 33.9668 235.36 35.2739 236.971 36.2203C238.583 37.1667 240.387 37.6399 242.383 37.6399ZM254.948 41.0553C254.358 41.0553 253.866 40.8726 253.472 40.5072C253.088 40.1324 252.896 39.6498 252.896 39.0595V30.0641L253.894 25.9178L257 26.7049V39.0595C257 39.6498 256.808 40.1324 256.424 40.5072C256.04 40.8726 255.548 41.0553 254.948 41.0553Z" fill="white"/>
</svg>
